HIERARCHY
ROOT TORSO#
{
	OFFSET 5.56 -369.07 2138.24
	CHANNELS 6 Xposition Yposition Zposition Zrotation Xrotation Yrotation
	JOINT TLS
	{
		OFFSET 0.00 0.00 0.00
		CHANNELS 3 Zrotation Xrotation Yrotation
		JOINT LEFT_SHOULDER#
		{
			OFFSET -161.42 184.08 84.64
			CHANNELS 3 Zrotation Xrotation Yrotation
			JOINT LEFT_ELBOW
			{
				OFFSET -69.59 -223.23 -45.19
				CHANNELS 3 Zrotation Xrotation Yrotation
				JOINT LEFT_HAND
				{
					OFFSET 24.05 -298.44 -191.08
					CHANNELS 3 Zrotation Xrotation Yrotation
					End Site
					{
						OFFSET 0.00 0.00 0.00
					}
				}
			}
		}
	}
	JOINT TRS
	{
		OFFSET 0.00 0.00 0.00
		CHANNELS 3 Zrotation Xrotation Yrotation
		JOINT RIGHT_SHOULDER#
		{
			OFFSET 163.33 201.07 -0.47
			CHANNELS 3 Zrotation Xrotation Yrotation
			JOINT RIGHT_ELBOW
			{
				OFFSET 60.30 -237.59 0.14
				CHANNELS 3 Zrotation Xrotation Yrotation
				JOINT RIGHT_HAND
				{
					OFFSET -13.30 -279.69 -172.79
					CHANNELS 3 Zrotation Xrotation Yrotation
					End Site
					{
						OFFSET 0.00 0.00 0.00
					}
				}
			}
		}
	}
	JOINT TLH
	{
		OFFSET 0.00 0.00 0.00
		CHANNELS 3 Zrotation Xrotation Yrotation
		JOINT LEFT_HIP#
		{
			OFFSET -114.82 -198.54 -12.25
			CHANNELS 3 Zrotation Xrotation Yrotation
			JOINT LEFT_KNEE
			{
				OFFSET 6.44 -357.03 5.22
				CHANNELS 3 Zrotation Xrotation Yrotation
				JOINT LEFT_FOOT
				{
					OFFSET 31.40 -335.83 64.40
					CHANNELS 3 Zrotation Xrotation Yrotation
					End Site
					{
						OFFSET 0.00 0.00 0.00
					}
				}
			}
		}
	}
	JOINT TRH
	{
		OFFSET 0.00 0.00 0.00
		CHANNELS 3 Zrotation Xrotation Yrotation
		JOINT RIGHT_HIP#
		{
			OFFSET 112.92 -186.61 -71.93
			CHANNELS 3 Zrotation Xrotation Yrotation
			JOINT RIGHT_KNEE
			{
				OFFSET 0.92 -357.13 0.99
				CHANNELS 3 Zrotation Xrotation Yrotation
				JOINT RIGHT_FOOT
				{
					OFFSET 1.47 -338.68 56.68
					CHANNELS 3 Zrotation Xrotation Yrotation
					End Site
					{
						OFFSET 0.00 0.00 0.00
					}
				}
			}
		}
	}
	JOINT TN
	{
		OFFSET 0.00 0.00 0.00
		CHANNELS 3 Zrotation Xrotation Yrotation
		JOINT NECK#
		{
			OFFSET 0.95 192.57 42.09
			CHANNELS 3 Zrotation Xrotation Yrotation
			JOINT HEAD
			{
				OFFSET -45.39 264.52 114.97
				CHANNELS 3 Zrotation Xrotation Yrotation
				End Site
				{
					OFFSET 0.00 0.00 0.00
				}
			}
		}
	}
}
MOTION
Frames: 19
Frame Time: 0.033333
0.00 0.00 0.00 0.00 0.00 0.00 0.00 0.00 0.00 0.00 0.00 0.00 0.00 0.00 0.00 0.00 0.00 0.00 0.00 0.00 0.00 0.00 0.00 0.00 0.00 0.00 0.00 0.00 0.00 0.00 0.00 0.00 0.00 0.00 0.00 0.00 0.00 0.00 0.00 0.00 0.00 0.00 0.00 0.00 0.00 0.00 0.00 0.00 0.00 0.00 0.00 0.00 0.00 0.00 0.00 0.00 0.00 0.00 0.00 0.00 0.00 0.00 0.00 
-5.63 0.93 1.64 -0.00 0.00 -0.00 3.05 0.73 -0.76 0.71 0.61 -0.31 -7.35 -2.66 4.50 -0.00 0.00 -0.00 0.66 0.59 -0.48 0.62 -0.04 -0.01 -3.09 1.52 1.94 -0.00 0.00 -0.00 1.90 0.92 -0.67 -2.28 -1.59 -0.11 0.75 -0.26 0.13 -0.00 0.00 -0.00 1.82 0.48 -0.42 -2.58 -0.08 0.01 1.15 -0.15 0.19 -0.00 0.00 -0.00 1.87 0.77 -0.42 -3.62 -1.73 1.24 -0.00 0.00 -0.00 
-7.85 1.83 2.78 -0.00 0.00 -0.00 4.29 1.24 -0.90 1.06 1.32 -0.55 -7.48 -3.71 4.53 -0.00 0.00 -0.00 0.69 0.79 -0.65 0.64 -0.35 -0.10 1.35 -1.94 -0.80 -0.00 0.00 -0.00 2.52 1.34 -0.97 -1.85 -2.05 -0.14 -0.13 0.92 0.07 -0.00 0.00 -0.00 2.45 0.90 -0.41 -3.84 -0.61 0.00 1.86 0.54 0.28 -0.00 0.00 -0.00 2.47 1.27 -0.57 -4.74 -2.99 1.44 -0.00 0.00 -0.00 
-7.17 0.70 3.76 -0.00 0.00 -0.00 3.63 0.10 -1.54 0.49 0.86 -0.31 -7.93 -1.08 5.13 -0.00 0.00 -0.00 0.59 0.71 -0.58 0.80 -0.48 -0.13 -8.61 3.12 5.46 -0.00 0.00 -0.00 1.85 0.89 -0.65 -0.79 -1.20 -0.07 -0.49 1.06 0.02 -0.00 0.00 -0.00 2.49 -0.15 -1.04 -4.48 1.20 0.08 2.63 0.11 0.38 -0.00 0.00 -0.00 2.26 0.30 -0.50 -4.23 -1.75 1.45 -0.00 0.00 -0.00 
-6.15 -2.03 -1.60 -0.00 0.00 -0.00 2.34 -1.20 -2.08 0.11 -2.15 0.54 -7.59 4.79 5.16 -0.00 0.00 -0.00 0.00 0.00 0.00 1.95 -1.31 -0.31 1.55 -0.23 -0.90 -0.00 0.00 -0.00 0.00 0.00 0.00 2.20 0.41 0.03 -3.19 -0.99 -0.75 -0.00 0.00 -0.00 2.27 -1.37 -1.67 -4.37 1.34 -0.01 2.98 1.35 0.41 -0.00 0.00 -0.00 1.56 -1.08 -0.32 -2.86 1.16 1.45 -0.00 0.00 -0.00 
-5.30 -4.88 -0.68 -0.00 0.00 -0.00 2.07 -1.17 -1.94 -0.71 -1.79 0.60 -6.25 4.69 4.29 -0.00 0.00 -0.00 -0.60 0.13 -0.10 2.40 -1.99 -0.44 1.17 0.61 -0.68 -0.00 0.00 -0.00 0.00 0.00 0.00 2.76 0.17 0.04 -4.63 -1.65 -1.18 -0.00 0.00 -0.00 1.79 -1.36 -1.49 -4.13 1.09 -0.03 3.11 0.56 0.49 -0.00 0.00 -0.00 1.05 -1.04 -0.22 -2.01 0.63 0.96 -0.00 0.00 -0.00 
-5.68 -3.32 0.04 -0.00 0.00 -0.00 2.01 -0.92 -1.70 -0.58 -2.34 0.72 -6.07 5.86 4.29 -0.00 0.00 -0.00 0.00 0.00 0.00 1.42 -1.26 -0.30 -3.71 2.66 2.19 -0.00 0.00 -0.00 0.59 -0.02 -0.03 1.92 -0.06 0.03 -4.13 -1.70 -1.10 -0.00 0.00 -0.00 1.64 -1.14 -1.30 -4.15 0.09 -0.09 3.48 1.39 0.54 -0.00 0.00 -0.00 1.28 -0.88 -0.27 -2.31 0.12 0.99 -0.00 0.00 -0.00 
-6.17 -2.84 -0.07 -0.00 0.00 -0.00 1.83 -1.23 -1.89 -0.72 -2.55 0.81 -6.01 6.42 4.23 -0.00 0.00 -0.00 0.00 0.00 0.00 1.26 -1.27 -0.31 -3.36 2.46 1.97 -0.00 0.00 -0.00 0.95 0.17 -0.16 1.22 -1.06 -0.01 -4.20 0.77 -0.75 -0.00 0.00 -0.00 1.31 -1.48 -1.38 -3.86 0.51 -0.08 4.10 3.09 0.51 -0.00 0.00 -0.00 1.32 -0.98 -0.27 -2.39 0.09 1.02 -0.00 0.00 -0.00 
-5.62 -1.83 -0.53 -0.00 0.00 -0.00 1.97 -1.03 -1.77 0.35 1.44 -0.46 -4.61 -0.27 2.97 -0.00 0.00 -0.00 0.66 0.53 -0.44 0.70 -1.80 -0.47 -0.37 1.70 0.20 -0.00 0.00 -0.00 1.49 0.44 -0.36 0.01 -2.18 -0.10 -3.36 1.02 -0.61 -0.00 0.00 -0.00 1.34 -1.26 -1.26 -4.23 1.06 -0.04 5.64 3.46 0.62 -0.00 0.00 -0.00 1.59 -0.68 -0.33 -2.80 -0.38 1.10 -0.00 0.00 -0.00 
-5.29 1.16 -4.50 -0.00 0.00 -0.00 2.89 -0.95 -2.10 -0.56 -0.58 0.25 -9.37 2.60 6.23 -0.00 0.00 -0.00 0.96 1.75 -1.44 0.36 -2.81 -0.76 -0.56 1.69 0.33 -0.00 0.00 -0.00 2.73 1.90 -1.33 -2.47 -6.34 -0.51 -1.75 2.74 -0.19 -0.00 0.00 -0.00 1.37 -1.18 -1.22 -4.28 1.66 0.01 5.88 1.08 0.82 -0.00 0.00 -0.00 2.23 0.31 -0.50 -3.83 -1.31 1.39 -0.00 0.00 -0.00 
-5.14 1.34 -2.73 -0.00 0.00 -0.00 2.17 -1.05 -1.88 -0.81 -0.55 0.30 -2.93 3.73 2.27 -0.00 0.00 -0.00 0.91 1.23 -1.01 0.32 -2.46 -0.66 0.09 2.13 -0.07 -0.00 0.00 -0.00 1.96 1.21 -0.85 -1.26 -5.30 -0.33 -2.38 2.30 -0.36 -0.00 0.00 -0.00 1.34 -1.21 -1.23 -4.04 1.98 0.02 5.05 -0.10 0.78 -0.00 0.00 -0.00 1.83 -0.14 -0.40 -3.17 -0.97 1.16 -0.00 0.00 -0.00 
-4.85 6.26 -4.43 -0.00 0.00 -0.00 2.98 -1.41 -2.53 -1.73 1.90 -0.11 -6.27 0.02 4.12 -0.00 0.00 -0.00 0.53 2.17 -1.78 0.86 -3.20 -0.84 1.19 2.49 -0.71 -0.00 0.00 -0.00 1.12 2.02 -1.26 -0.28 -7.77 -0.30 -2.56 4.23 -0.25 -0.00 0.00 -0.00 2.69 -1.31 -1.78 -5.93 2.05 0.05 6.44 3.82 0.55 -0.00 0.00 -0.00 2.15 0.31 -0.48 -3.53 -1.36 1.25 -0.00 0.00 -0.00 
-3.81 8.38 -2.64 -0.00 0.00 -0.00 3.61 -1.42 -2.80 -1.97 3.04 -0.28 -8.69 -1.61 5.67 -0.00 0.00 -0.00 0.76 1.82 -1.50 0.56 -2.73 -0.73 -0.77 2.61 0.47 -0.00 0.00 -0.00 1.42 1.62 -1.05 -1.10 -7.12 -0.36 -1.97 3.87 -0.15 -0.00 0.00 -0.00 3.26 -1.43 -2.05 -6.84 1.87 0.03 7.74 6.93 0.30 -0.00 0.00 -0.00 2.60 -0.07 -0.57 -3.89 -1.08 1.43 -0.00 0.00 -0.00 
-3.63 11.47 -3.43 -0.00 0.00 -0.00 3.64 -1.41 -2.81 -2.06 3.57 -0.37 -9.15 -4.17 5.61 -0.00 0.00 -0.00 0.26 2.33 -1.90 0.93 -2.43 -0.64 0.52 1.84 -0.33 -0.00 0.00 -0.00 1.46 2.29 -1.45 -1.47 -8.43 -0.44 -0.87 5.21 0.22 -0.00 0.00 -0.00 2.78 -1.40 -1.86 -5.92 1.24 -0.03 7.11 7.44 0.32 -0.00 0.00 -0.00 2.38 0.41 -0.53 -3.30 -1.62 1.08 -0.00 0.00 -0.00 
-5.04 9.70 -8.87 -0.00 0.00 -0.00 3.51 0.88 -0.84 -1.76 2.77 -0.24 -8.74 -5.37 5.58 -0.00 0.00 -0.00 -0.93 3.49 -2.79 3.98 2.95 0.40 -2.11 -0.63 1.63 -0.00 0.00 -0.00 1.71 4.37 -2.72 -2.34 -10.91 -0.60 0.90 5.84 0.63 -0.00 0.00 -0.00 0.94 1.04 0.25 2.08 20.64 -0.01 -4.50 -28.80 -1.95 -0.00 0.00 -0.00 1.32 3.48 -0.34 -2.14 -5.79 -0.20 -0.00 0.00 -0.00 
-7.54 8.05 -16.72 -0.00 0.00 -0.00 3.91 2.61 0.38 -2.01 1.91 0.06 -6.36 -6.59 3.93 -0.00 0.00 -0.00 -1.10 4.49 -3.58 6.57 6.44 0.72 -8.76 0.35 8.09 -0.00 0.00 -0.00 2.27 6.00 -3.76 -3.79 -13.54 -0.90 3.64 7.40 1.31 -0.00 0.00 -0.00 0.39 2.91 1.58 -5.35 18.38 1.29 9.92 -28.84 3.16 -0.00 0.00 -0.00 1.15 5.78 -0.33 -2.55 -8.37 -0.48 -0.00 0.00 -0.00 
-11.13 2.89 -22.53 -0.00 0.00 -0.00 1.86 3.09 1.76 -0.04 1.99 -0.56 1.55 -6.84 -1.90 -0.00 0.00 -0.00 -0.60 4.21 -3.39 4.01 10.13 1.85 -10.11 1.10 10.48 -0.00 0.00 -0.00 2.70 5.92 -3.77 -3.87 -15.51 -1.21 4.68 10.17 1.85 -0.00 0.00 -0.00 -1.77 3.28 2.71 -4.80 15.29 0.47 13.16 -25.32 4.05 -0.00 0.00 -0.00 0.17 6.01 -0.07 -1.60 -8.01 -0.72 -0.00 0.00 -0.00 
-9.98 2.50 -22.02 -0.00 0.00 -0.00 2.18 3.07 1.58 -0.40 2.00 -0.45 -2.42 -6.87 1.08 -0.00 0.00 -0.00 -0.97 1.15 -0.92 2.52 14.15 2.98 -15.53 12.35 15.64 -0.00 0.00 -0.00 3.42 3.08 -2.12 -7.59 -9.59 -1.10 6.24 5.95 1.70 -0.00 0.00 -0.00 -2.62 2.23 2.42 -5.77 10.15 0.28 15.37 -16.84 4.10 -0.00 0.00 -0.00 0.12 3.47 -0.05 -1.03 -4.01 -0.24 -0.00 0.00 -0.00 
-13.24 2.48 -26.23 -0.00 0.00 -0.00 2.91 5.63 3.31 0.59 4.80 -1.50 5.16 -10.47 -6.22 -0.00 0.00 -0.00 -0.82 -0.13 0.10 1.99 15.41 3.42 -24.00 18.55 23.38 -0.00 0.00 -0.00 4.48 2.80 -2.05 -8.80 -10.34 -1.51 6.18 6.09 1.78 -0.00 0.00 -0.00 -3.32 4.10 3.90 -4.01 6.00 0.16 13.82 -14.64 3.51 -0.00 0.00 -0.00 0.07 4.50 -0.04 -1.44 -4.82 -0.16 -0.00 0.00 -0.00 
